<?xml version='1.0' encoding='utf-8'?>
<svg xmlns:xlink="http://www.w3.org/1999/xlink" xmlns="http://www.w3.org/2000/svg" id="svg2834" version="1.1" viewBox="0 0 508 285.75" height="1080" width="1920"> <defs id="defs2828"> <linearGradient id="linearGradient4478"> <stop style="stop-color:#330d0d;stop-opacity:0.99607849" offset="0" id="stop4480"/> <stop id="stop4486" offset="0.47511348" style="stop-color:#fa4c4c;stop-opacity:1"/> <stop style="stop-color:#ff8a65;stop-opacity:1" offset="1" id="stop4482"/> </linearGradient> <linearGradient id="linearGradient3662"> <stop style="stop-color:#902222;stop-opacity:1" offset="0" id="stop3664"/> <stop id="stop4459" offset="0.50000006" style="stop-color:#601515;stop-opacity:1"/> <stop style="stop-color:#330b0b;stop-opacity:1" offset="1" id="stop3666"/> </linearGradient> <linearGradient id="linearGradient19920"> <stop style="stop-color:#757575;stop-opacity:1;" offset="0" id="stop19922"/> </linearGradient> <linearGradient id="linearGradient6205"> <stop id="stop6207" offset="0" style="stop-color:#d50000;stop-opacity:1"/> <stop style="stop-color:#ce93d8;stop-opacity:1" offset="0.39729255" id="stop6209"/> <stop id="stop6211" offset="0.95597363" style="stop-color:#00bfa5;stop-opacity:1"/> <stop id="stop6213" offset="1" style="stop-color:#4a148c;stop-opacity:1"/> </linearGradient> <linearGradient id="linearGradient4471-9"> <stop style="stop-color:#426c40;stop-opacity:1" offset="0" id="stop4473-4"/> <stop style="stop-color:#558a52;stop-opacity:1" offset="1" id="stop4475-8"/> </linearGradient> <linearGradient y2="1096.3503" x2="581.60583" y1="3.2116654" x1="7.007309" gradientUnits="userSpaceOnUse" id="linearGradient4496" xlink:href="#linearGradient4471-9"/> <linearGradient xlink:href="#linearGradient19920" id="linearGradient20006" gradientUnits="userSpaceOnUse" x1="230.20682" y1="354.3468" x2="230.20682" y2="382.15875"/> <linearGradient xlink:href="#linearGradient19920" id="linearGradient20014" gradientUnits="userSpaceOnUse" gradientTransform="translate(133.48906,-211.35767)" x1="230.20682" y1="354.3468" x2="230.20682" y2="382.15875"/> <linearGradient id="linearGradient4274-6"> <stop style="stop-color:#ffffff;stop-opacity:1" offset="0" id="stop4276-1"/> <stop style="stop-color:#fdebd3;stop-opacity:1" offset="1" id="stop4278-5"/> </linearGradient> <radialGradient r="254" fy="142.875" fx="253.99998" cy="142.875" cx="253.99998" gradientTransform="matrix(2.1621406,0,0,2.1259843,410.81632,236.25)" gradientUnits="userSpaceOnUse" id="radialGradient4297" xlink:href="#linearGradient4274-6"/> <clipPath clipPathUnits="userSpaceOnUse" id="clipPath4349"> <rect style="color:#000000;fill:#f64c01;fill-opacity:1;fill-rule:nonzero;stroke:#000000;stroke-width:0.52916664;stroke-linecap:butt;stroke-linejoin:miter;stroke-miterlimit:4;stroke-opacity:1;stroke-dasharray:none;stroke-dashoffset:0;marker:none;visibility:visible;display:inline;overflow:visible;enable-background:accumulate" id="rect4351" width="217.6062" height="218.40622" x="68.801964" y="53.743385"/> </clipPath> <radialGradient xlink:href="#linearGradient4262-0" id="radialGradient4268-2" cx="254" cy="142.875" fx="254" fy="142.875" r="254" gradientTransform="matrix(0.4545364,0,0,0.43984233,138.54774,80.032528)" gradientUnits="userSpaceOnUse"/> <linearGradient id="linearGradient4262-0"> <stop style="stop-color:#e0dde4;stop-opacity:1" offset="0" id="stop4264-0"/> <stop style="stop-color:#dbaa8a;stop-opacity:1" offset="1" id="stop4266-1"/> </linearGradient> <radialGradient xlink:href="#linearGradient3662" id="radialGradient3668" cx="111.46714" cy="240.70303" fx="111.46714" fy="240.70303" r="254" gradientTransform="matrix(0.93876473,0,0,0.88800291,70.106409,-13.710665)" gradientUnits="userSpaceOnUse"/> <radialGradient xlink:href="#linearGradient4478" id="radialGradient4484" cx="243.00388" cy="-160.18578" fx="243.00388" fy="-160.18578" r="210.91947" gradientTransform="matrix(1.5429579,-1.2431516,1.4061869,1.7453305,140.49958,709.76371)" gradientUnits="userSpaceOnUse"/> <radialGradient xlink:href="#linearGradient4478" id="radialGradient4606" gradientUnits="userSpaceOnUse" gradientTransform="matrix(1.5429579,-1.2431516,1.4061869,1.7453305,140.49958,709.76371)" cx="243.00388" cy="-160.18578" fx="243.00388" fy="-160.18578" r="210.91947"/> <radialGradient xlink:href="#linearGradient4478" id="radialGradient4678" gradientUnits="userSpaceOnUse" gradientTransform="matrix(1.5429579,-1.2431516,1.4061869,1.7453305,140.49958,709.76371)" cx="243.00388" cy="-160.18578" fx="243.00388" fy="-160.18578" r="210.91947"/> <radialGradient xlink:href="#linearGradient4478" id="radialGradient4700" gradientUnits="userSpaceOnUse" gradientTransform="matrix(1.5429579,-1.2431516,1.4061869,1.7453305,140.49958,709.76371)" cx="247.87094" cy="-151.9949" fx="247.87094" fy="-151.9949" r="210.91947"/> <radialGradient xlink:href="#linearGradient4478" id="radialGradient5004" gradientUnits="userSpaceOnUse" gradientTransform="matrix(1.5429579,-1.2431516,1.4061869,1.7453305,140.49958,709.76371)" cx="247.87094" cy="-151.9949" fx="247.87094" fy="-151.9949" r="210.91947"/> </defs> <metadata id="metadata2831"> </metadata> <g id="layer1" transform="translate(0,-11.249992)"> <rect style="color:#000000;fill:#f5f5f5;fill-opacity:1;fill-rule:nonzero;stroke:none;stroke-width:12.01252556;marker:none;visibility:visible;display:inline;overflow:visible;enable-background:accumulate" id="rect4625" width="508" height="285.75" x="2.6645353e-015" y="11.249992"/> </g> <g id="layer2"> <path style="color:#000000;fill:url(#radialGradient3668);fill-opacity:1;fill-rule:nonzero;stroke:none;stroke-width:10;marker:none;visibility:visible;display:inline;overflow:visible;enable-background:accumulate" d="m 0,0 508,0 0,285.75 -508,0 z" id="rect3601"/> <g id="g4962" transform="translate(0.91789132,0.28723075)"> <g transform="matrix(0.89191874,0,0,0.89191874,18.885653,7.7266508)" id="g4595"> <g id="g3603" transform="matrix(0.92165495,0,0,0.92299555,18.503467,11.701857)" style="stroke:#b01a1a;stroke-opacity:1"> <path d="M 203.87693,276.37538 H 472.39415 V 7.8581543 H 203.87693" id="path3477" style="fill:none;stroke:#b01a1a;stroke-width:1.58749998;stroke-opacity:1"/> <path d="M 141.91142,173.0992 H 38.635566 V 276.37506 H 141.91142" id="path3479" style="fill:none;stroke:#b01a1a;stroke-width:1.58749998;stroke-opacity:1"/> <path d="m 141.12264,213.71762 v 62.64872 h 62.74579 v -62.64872" id="path3481" style="fill:none;stroke:#b01a1a;stroke-width:1.60622644;stroke-opacity:1"/> <path d="m 162.56314,213.2933 h 41.3249 v -40.20562 h -41.3249" id="path3483" style="fill:none;stroke:#b01a1a;stroke-width:1.56637692;stroke-opacity:1"/> <path d="m 164.08173,196.78661 v -23.59212 h -22.86585 v 23.59212" id="path3485" style="fill:none;stroke:#b01a1a;stroke-width:1.78509808;stroke-opacity:1"/> <path d="m 164.2128,196.61248 h -23.14125 v 16.71083 h 23.14125 z" id="path3487" style="fill:none;stroke:#b01a1a;stroke-width:1.51139295;stroke-opacity:1"/> <path d="M 203.87693,173.0992 V 7.8578357 H 38.635566 V 173.0992" id="path3503" style="fill:none;stroke:#b01a1a;stroke-width:1.58749998;stroke-opacity:1"/> </g> <path style="font-size:medium;font-style:normal;font-variant:normal;font-weight:normal;font-stretch:normal;text-indent:0;text-align:start;text-decoration:none;line-height:normal;letter-spacing:normal;word-spacing:normal;text-transform:none;direction:ltr;block-progression:tb;writing-mode:lr-tb;text-anchor:start;baseline-shift:baseline;color:#000000;fill:url(#radialGradient5004);fill-opacity:1;stroke:none;stroke-width:2.64583325;marker:none;visibility:visible;display:inline;overflow:visible;enable-background:accumulate;font-family:Sans;-inkscape-font-specification:Sans" d="m 206.52226,18.215368 c -40.61454,0 -79.57351,16.130931 -108.293594,44.851007 C 69.508622,91.787116 53.377659,130.73618 53.377659,171.3521 c 0,25.50556 10.127238,49.97645 28.162626,68.01184 18.035388,18.03539 42.498405,28.17049 68.003975,28.17049 15.43244,0 29.70745,-6.13767 40.61993,-17.05014 10.91196,-10.91247 17.04228,-25.71439 17.04228,-41.14685 0,-10.39524 -3.46257,-20.89844 -10.81363,-28.24914 -7.35099,-7.35063 -15.87204,-9.97213 -26.26729,-9.97213 -5.35928,0 -12.04187,3.01944 -15.83116,6.80903 -3.78926,3.78956 -6.48031,8.8208 -6.48031,14.17961 0,5.35881 0.12394,9.25919 3.91321,13.04874 3.78856,3.78887 9.95084,6.77638 18.44215,-0.14156 0.002,-0.001 0.006,0.001 0.008,0 0.34249,-0.21713 0.57411,-0.60259 0.57411,-1.03811 0,-0.67636 -0.5505,-1.21899 -1.22686,-1.21899 -0.19642,0 -0.37812,0.0436 -0.54264,0.12583 l -0.008,-0.0157 c -0.0314,0.0254 -0.063,0.0457 -0.0944,0.0708 -0.0796,0.0496 -0.1542,0.10701 -0.2202,0.17302 -0.003,0.003 -0.005,0.005 -0.008,0.008 -6.81341,5.3274 -11.83577,3.86016 -15.16267,0.30671 -3.2224,-3.44181 -3.2526,-6.60398 -3.2526,-11.31855 0,-4.71458 2.43874,-9.13112 5.77252,-12.46516 3.33374,-3.334 9.40149,-6.10123 14.1167,-6.10123 9.75094,0 17.64948,2.3849 24.54497,9.28006 6.89545,6.89511 10.12156,16.76797 10.12156,26.51896 0,14.78822 -5.89373,28.96757 -16.35021,39.42453 -10.45692,10.45692 -24.10935,16.34236 -38.89761,16.34236 -24.86133,0 -48.70969,-9.89074 -66.289521,-27.47057 -17.579835,-17.57983 -27.431231,-41.42034 -27.431231,-66.28166 0,-39.97167 15.862892,-78.298142 44.127477,-106.563411 C 128.21537,36.524342 166.55181,20.65355 206.5221,20.65355 c 65.15727,0 127.63872,25.872614 173.71017,71.944067 46.06877,46.074263 71.94407,109.781873 71.94407,174.937013 l 2.44584,0 c 0,-65.79936 -26.14343,-130.12959 -72.6676,-176.659329 C 335.42772,44.348088 272.32366,18.215368 206.52226,18.215368 z" id="path3489"/> </g> <g style="font-size:20.02983475px;font-style:normal;font-variant:normal;font-weight:300;font-stretch:normal;text-indent:0;text-align:start;text-decoration:none;line-height:125%;letter-spacing:0px;word-spacing:0px;text-transform:none;direction:ltr;block-progression:tb;writing-mode:lr-tb;text-anchor:start;baseline-shift:baseline;color:#000000;fill:#dd2f2f;fill-opacity:1;fill-rule:nonzero;stroke:none;stroke-width:1;marker:none;visibility:visible;display:inline;overflow:visible;enable-background:accumulate;font-family:'[z] Arista Light';-inkscape-font-specification:'[z] Arista Light, Light'" id="text4507-7-1"> <path d="m 131.23091,6.8537128 c 0.12021,-0.013435 0.24043,0.00653 0.36065,0.059904 0.12021,0.053396 0.22372,0.1302114 0.31052,0.2304458 0.0868,0.1002594 0.15689,0.2104902 0.21027,0.3306928 0.0534,0.1202269 0.0801,0.2469618 0.0801,0.380205 l 0,2.9646206 c 0.50775,-0.347188 1.01866,-0.580893 1.53274,-0.701118 0.51406,-0.1202045 0.95794,-0.1803119 1.33163,-0.1803216 0.62756,9.7e-6 1.23851,0.1202246 1.83287,0.3606446 0.59434,0.240439 1.13847,0.594359 1.63237,1.061762 l 0,-0.02017 c 0.46741,0.480868 0.81797,0.99504 1.05168,1.54252 0.2337,0.547493 0.35055,1.181677 0.35056,1.902553 -10e-6,0.66791 -0.13021,1.295574 -0.3906,1.882993 -0.2604,0.587425 -0.61096,1.101496 -1.05167,1.542214 -0.44073,0.440721 -0.9548,0.787917 -1.54222,1.041591 -0.58743,0.253673 -1.20837,0.38051 -1.86282,0.38051 -0.64101,0 -1.25197,-0.130198 -1.83287,-0.390596 -0.5809,-0.260397 -1.09834,-0.610956 -1.5523,-1.051677 -0.45396,-0.440718 -0.81451,-0.954789 -1.08163,-1.542214 -0.26712,-0.587419 -0.40068,-1.208359 -0.40068,-1.862821 l 0,-7.0301243 c 0,-0.2269699 0.10015,-0.4373457 0.30044,-0.6311281 0.20029,-0.1937574 0.41392,-0.2839184 0.64091,-0.2704835 z m 0.96152,7.9317362 c -1e-5,0.400585 0.0768,0.774473 0.23044,1.121666 0.15363,0.3472 0.36401,0.650997 0.63113,0.911392 0.26712,0.2604 0.57428,0.467414 0.92148,0.621042 0.34719,0.153633 0.71435,0.230448 1.10149,0.230446 0.38713,2e-6 0.75766,-0.07681 1.11158,-0.230446 0.35392,-0.153628 0.66107,-0.360642 0.92148,-0.621042 0.26039,-0.260395 0.4674,-0.564192 0.62104,-0.911392 0.15362,-0.347193 0.23044,-0.721081 0.23045,-1.121666 -1e-5,-0.387127 -0.0768,-0.757654 -0.23045,-1.11158 -0.15364,-0.353914 -0.36065,-0.661073 -0.62104,-0.921477 -0.26041,-0.260391 -0.56756,-0.467303 -0.92148,-0.620737 -0.35392,-0.153419 -0.72445,-0.230132 -1.11158,-0.23014 -0.38714,8e-6 -0.7543,0.08008 -1.10149,0.240226 -0.3472,0.160158 -0.65436,0.377054 -0.92148,0.650688 -0.26712,0.273648 -0.4775,0.584067 -0.63113,0.931258 -0.15363,0.347202 -0.23045,0.701123 -0.23044,1.061762 z" style="marker:none" id="path5007"/> </g> <g style="font-size:20.02983475px;font-style:normal;font-variant:normal;font-weight:300;font-stretch:normal;text-indent:0;text-align:start;text-decoration:none;line-height:125%;letter-spacing:0px;word-spacing:0px;text-transform:none;direction:ltr;block-progression:tb;writing-mode:lr-tb;text-anchor:start;baseline-shift:baseline;color:#000000;fill:#dd2f2f;fill-opacity:1;fill-rule:nonzero;stroke:none;stroke-width:1;marker:none;visibility:visible;display:inline;overflow:visible;enable-background:accumulate;font-family:'[z] Arista Light';-inkscape-font-specification:'[z] Arista Light, Light'" id="text4591"> <path d="m 313.92125,9.9583127 c 0.60107,0.066841 1.16537,0.2404393 1.69289,0.5207953 0.52752,0.280374 0.98148,0.637555 1.3619,1.071542 0.3804,0.434004 0.68083,0.928107 0.9013,1.48231 0.22045,0.554217 0.33068,1.13838 0.33069,1.752489 l 0,3.865621 c -1e-5,0.267326 -0.10015,0.497771 -0.30043,0.691337 -0.2003,0.193567 -0.42738,0.29035 -0.68125,0.29035 -0.0933,0 -0.19674,-0.0067 -0.31022,-0.02017 -0.1135,-0.01345 -0.22373,-0.05012 -0.33069,-0.110027 -0.10698,-0.0599 -0.20386,-0.143341 -0.29066,-0.250312 -0.0868,-0.10697 -0.13672,-0.253775 -0.14975,-0.440414 -0.0668,0.02649 -0.18706,0.08649 -0.36065,0.180017 -0.1736,0.09352 -0.30054,0.160253 -0.38082,0.200188 -0.14671,0.06683 -0.30023,0.126939 -0.46058,0.180322 -0.16036,0.05338 -0.32734,0.106767 -0.50093,0.160151 -0.33376,0.06683 -0.6942,0.100247 -1.08132,0.100247 -1.00166,0 -1.89634,-0.270382 -2.68405,-0.811145 -0.78772,-0.540762 -1.37535,-1.238415 -1.76288,-2.092961 -0.13326,-0.29381 -0.23667,-0.604331 -0.31022,-0.931564 -0.0736,-0.327224 -0.11033,-0.664437 -0.11033,-1.011638 0,-0.347192 0.0368,-0.681043 0.11033,-1.001553 0.0735,-0.320499 0.17696,-0.634178 0.31022,-0.941038 0.38753,-0.867984 0.97516,-1.569101 1.76288,-2.103352 0.78771,-0.534234 1.68239,-0.8013553 2.68405,-0.801365 0.10676,9.7e-6 0.20018,9.7e-6 0.28026,0 0.0801,9.7e-6 0.17349,0.00673 0.28026,0.020172 z m -0.58069,7.7116813 c 0.38712,2e-6 0.75765,-0.07345 1.11158,-0.22036 0.35391,-0.146904 0.66107,-0.350556 0.92147,-0.610956 0.26039,-0.260395 0.46741,-0.564192 0.62105,-0.911392 0.15362,-0.347193 0.23043,-0.727805 0.23044,-1.141837 -10e-6,-0.37368 -0.0768,-0.737482 -0.23044,-1.091409 -0.15364,-0.353914 -0.36402,-0.661073 -0.63113,-0.921477 -0.26713,-0.260391 -0.57429,-0.470665 -0.92148,-0.630823 -0.3472,-0.160143 -0.71437,-0.240218 -1.10149,-0.240226 -0.38714,8e-6 -0.75094,0.07672 -1.09141,0.230141 -0.34048,0.153434 -0.64428,0.363708 -0.91139,0.630822 -0.26713,0.267128 -0.4775,0.574287 -0.63113,0.921478 -0.15364,0.347202 -0.23045,0.714366 -0.23045,1.101494 0,0.400585 0.0802,0.774473 0.24053,1.121666 0.16035,0.3472 0.37735,0.650997 0.651,0.911391 0.27364,0.260401 0.58069,0.467414 0.92117,0.621043 0.34047,0.153632 0.69103,0.230447 1.05168,0.230445 z" style="marker:none" id="path5010"/> </g> <g transform="matrix(0.75836173,0,0,0.75836173,68.49417,63.917298)" id="g4916"> <g style="font-size:20.02983475px;font-style:normal;font-variant:normal;font-weight:300;font-stretch:normal;text-indent:0;text-align:start;text-decoration:none;line-height:125%;letter-spacing:0px;word-spacing:0px;text-transform:none;direction:ltr;block-progression:tb;writing-mode:lr-tb;text-anchor:start;baseline-shift:baseline;color:#000000;fill:#dd2f2f;fill-opacity:1;fill-rule:nonzero;stroke:none;stroke-width:1;marker:none;visibility:visible;display:inline;overflow:visible;enable-background:accumulate;font-family:'[z] Arista Light';-inkscape-font-specification:'[z] Arista Light, Light'" id="text4652"> <path d="m 413.5939,259.28152 c 0.12021,0.12023 0.20365,0.26378 0.25031,0.43064 0.0467,0.16689 0.07,0.3306 0.07,0.49115 l 0,9.5742 1.92303,0 c 0.29381,0 0.54086,0.10014 0.74116,0.30043 0.20028,0.20029 0.30042,0.44734 0.30043,0.74116 -10e-6,0.26691 -0.10015,0.50052 -0.30043,0.70081 -0.2003,0.20029 -0.44735,0.30043 -0.74116,0.30043 l -5.9488,0 c -0.29381,0 -0.5375,-0.10014 -0.73107,-0.30043 -0.19357,-0.20029 -0.29035,-0.4339 -0.29035,-0.70081 0,-0.29382 0.0968,-0.54087 0.29035,-0.74116 0.19357,-0.20029 0.43726,-0.30043 0.73107,-0.30043 l 1.96276,0 0,-7.33087 -1.68219,1.66202 c -0.0803,0.0937 -0.18053,0.16729 -0.30074,0.22067 -0.12022,0.0534 -0.25042,0.0801 -0.3906,0.0801 -0.14018,1e-5 -0.27364,-0.0234 -0.40037,-0.0703 -0.12674,-0.0469 -0.23697,-0.12367 -0.3307,-0.23045 -0.1736,-0.21353 -0.26702,-0.45049 -0.28026,-0.7109 -0.0133,-0.26039 0.0802,-0.50408 0.28026,-0.73107 l 3.38517,-3.40534 c 0.24043,-0.17358 0.48086,-0.26038 0.72129,-0.26039 0.26691,10e-6 0.51386,0.0935 0.74085,0.28056 z" style="marker:none" id="path5013"/> <path d="m 418.38803,269.71699 c 0.30726,0 0.5644,0.10351 0.77141,0.31052 0.20701,0.20702 0.31052,0.45071 0.31052,0.73107 l 0,2.7244 c 0,0.28036 -0.10351,0.52069 -0.31052,0.72098 -0.20701,0.20029 -0.46415,0.30043 -0.77141,0.30043 -0.28037,0 -0.5207,-0.10014 -0.72098,-0.30043 -0.2003,-0.20029 -0.30044,-0.44062 -0.30044,-0.72098 l 0,-2.7244 c 0,-0.28036 0.10014,-0.52405 0.30044,-0.73107 0.20028,-0.20701 0.44061,-0.31052 0.72098,-0.31052 z" style="marker:none" id="path5015"/> <path d="m 426.9946,265.43082 c 0.2938,0.33376 0.52079,0.71427 0.68094,1.14153 0.16015,0.42728 0.24022,0.88135 0.24023,1.3622 -1e-5,0.53425 -0.10351,1.03833 -0.31052,1.51226 -0.20702,0.47394 -0.48403,0.8845 -0.83101,1.2317 -0.347,0.34719 -0.76093,0.6243 -1.24178,0.83131 -0.48087,0.20702 -0.98821,0.31052 -1.52204,0.31052 -0.5208,0 -1.01491,-0.1035 -1.48231,-0.31052 -0.46742,-0.20701 -0.87808,-0.48412 -1.232,-0.83131 -0.35392,-0.3472 -0.63439,-0.75776 -0.8414,-1.2317 -0.20702,-0.47393 -0.31705,-0.97801 -0.33009,-1.51226 l 0,-5.02763 c 0,-0.32029 0.04,-0.63407 0.12012,-0.94134 0.0801,-0.30725 0.19346,-0.60107 0.34016,-0.88144 0.3472,-0.60066 0.80789,-1.08131 1.38207,-1.44197 0.57417,-0.36063 1.25532,-0.56765 2.04345,-0.62104 l 1.90224,0 c 0.30726,10e-6 0.55767,0.10352 0.75125,0.31052 0.19355,0.20702 0.29034,0.45744 0.29034,0.75124 0,0.26693 -0.10341,0.49727 -0.31021,0.69103 -0.20682,0.19378 -0.45061,0.29719 -0.73138,0.31022 l -1.90224,0 c -0.50776,1e-5 -0.9385,0.17697 -1.29221,0.53088 -0.35372,0.35393 -0.53058,0.78456 -0.53058,1.2919 l 0,1.58256 c 0.54728,-0.30726 1.15488,-0.46089 1.82279,-0.46089 0.58721,0 1.13123,0.12022 1.63207,0.36064 0.50082,0.24044 0.95152,0.58763 1.35211,1.04159 z m -2.98418,4.32651 c 0.25346,10e-6 0.49369,-0.0468 0.72067,-0.14028 0.22698,-0.0935 0.42391,-0.22372 0.59079,-0.3906 0.16687,-0.16687 0.29707,-0.36044 0.3906,-0.5807 0.0935,-0.22025 0.14027,-0.45732 0.14028,-0.7112 -10e-6,-0.24043 -0.0468,-0.47413 -0.14028,-0.70112 -0.0935,-0.22697 -0.22373,-0.4239 -0.3906,-0.59078 -0.16688,-0.16687 -0.36381,-0.30043 -0.59079,-0.40068 -0.22698,-0.10025 -0.46721,-0.15037 -0.72067,-0.15037 -0.24044,0 -0.47088,0.0468 -0.69134,0.14028 -0.22047,0.0935 -0.41413,0.22373 -0.58101,0.3906 -0.16687,0.16688 -0.30033,0.3638 -0.40037,0.59078 -0.10005,0.22699 -0.15007,0.46742 -0.15007,0.72129 0,0.50735 0.17686,0.93798 0.53058,1.2919 0.35371,0.35393 0.78445,0.53089 1.29221,0.53088 z" style="marker:none" id="path5017"/> <path d="m 433.54549,259.28152 c 0.12021,0.12023 0.20365,0.26378 0.25032,0.43064 0.0466,0.16689 0.07,0.3306 0.07,0.49115 l 0,9.5742 1.92303,0 c 0.2938,0 0.54085,0.10014 0.74115,0.30043 0.20028,0.20029 0.30043,0.44734 0.30044,0.74116 -10e-6,0.26691 -0.10016,0.50052 -0.30044,0.70081 -0.2003,0.20029 -0.44735,0.30043 -0.74115,0.30043 l -5.94881,0 c -0.29381,0 -0.5375,-0.10014 -0.73107,-0.30043 -0.19356,-0.20029 -0.29035,-0.4339 -0.29035,-0.70081 0,-0.29382 0.0968,-0.54087 0.29035,-0.74116 0.19357,-0.20029 0.43726,-0.30043 0.73107,-0.30043 l 1.96277,0 0,-7.33087 -1.6822,1.66202 c -0.0803,0.0937 -0.18053,0.16729 -0.30074,0.22067 -0.12021,0.0534 -0.25041,0.0801 -0.39059,0.0801 -0.14019,1e-5 -0.27365,-0.0234 -0.40038,-0.0703 -0.12674,-0.0469 -0.23697,-0.12367 -0.33069,-0.23045 -0.1736,-0.21353 -0.26702,-0.45049 -0.28027,-0.7109 -0.0132,-0.26039 0.0802,-0.50408 0.28027,-0.73107 l 3.38517,-3.40534 c 0.24042,-0.17358 0.48085,-0.26038 0.72128,-0.26039 0.26692,10e-6 0.51387,0.0935 0.74085,0.28056 z" style="marker:none" id="path5019"/> <path d="m 444.96998,267.95472 c -1e-5,0.53384 -0.10015,1.03446 -0.30043,1.50187 -0.2003,0.46742 -0.47741,0.87808 -0.83132,1.232 -0.35393,0.35392 -0.76459,0.63103 -1.232,0.83132 -0.46742,0.20029 -0.96152,0.30043 -1.48231,0.30043 -0.53425,0 -1.03497,-0.10014 -1.50218,-0.30043 -0.46721,-0.20029 -0.87777,-0.4774 -1.23169,-0.83132 -0.35392,-0.35392 -0.63103,-0.76458 -0.83132,-1.232 -0.20029,-0.46741 -0.30043,-0.96803 -0.30043,-1.50187 0,-0.58762 0.12021,-1.13511 0.36064,-1.64246 0.24043,-0.50734 0.57418,-0.94134 1.00125,-1.30199 -0.30685,-0.30725 -0.55044,-0.67452 -0.73076,-1.1018 -0.18033,-0.42726 -0.27049,-0.88785 -0.27049,-1.38176 0,-0.48084 0.0902,-0.93491 0.27049,-1.36219 0.18032,-0.42726 0.43063,-0.80115 0.75093,-1.12167 0.3203,-0.32049 0.69419,-0.5709 1.12167,-0.75124 0.42747,-0.18031 0.88144,-0.27047 1.36189,-0.27048 0.48086,10e-6 0.93492,0.0902 1.3622,0.27048 0.42726,0.18034 0.80115,0.43075 1.12166,0.75124 0.3205,0.32052 0.57092,0.69441 0.75125,1.12167 0.18031,0.42728 0.27047,0.88135 0.27048,1.36219 -10e-6,0.48047 -0.0935,0.93769 -0.28057,1.37168 -0.18705,0.434 -0.44073,0.80463 -0.76102,1.11188 0.42706,0.36065 0.76417,0.79465 1.01133,1.30199 0.24715,0.50735 0.37072,1.05484 0.37073,1.64246 z m -3.84606,-6.87058 c -0.40058,1e-5 -0.74442,0.14029 -1.0315,0.42085 -0.2871,0.28058 -0.43064,0.62115 -0.43064,1.02172 0,0.40059 0.14354,0.74443 0.43064,1.03151 0.28708,0.2871 0.63092,0.43064 1.0315,0.43063 0.38713,10e-6 0.72098,-0.14353 1.00155,-0.43063 0.28057,-0.28708 0.42085,-0.63092 0.42086,-1.03151 -1e-5,-0.40057 -0.14029,-0.74114 -0.42086,-1.02172 -0.28057,-0.28056 -0.61442,-0.42084 -1.00155,-0.42085 z m 0,5.08753 c -0.4939,10e-6 -0.91781,0.1736 -1.27173,0.5208 -0.35392,0.3472 -0.53088,0.76795 -0.53088,1.26225 0,0.50735 0.17696,0.93462 0.53088,1.28182 0.35392,0.3472 0.77783,0.5208 1.27173,0.52079 0.4943,10e-6 0.91505,-0.17359 1.26226,-0.52079 0.34719,-0.3472 0.52079,-0.77447 0.52079,-1.28182 0,-0.4943 -0.1736,-0.91505 -0.52079,-1.26225 -0.34721,-0.3472 -0.76796,-0.52079 -1.26226,-0.5208 z" style="marker:none" id="path5021"/> <path d="m 453.30515,262.88675 0,5.0478 c -1e-5,0.53425 -0.10015,1.03833 -0.30043,1.51226 -0.2003,0.47394 -0.4773,0.8845 -0.83101,1.2317 -0.35373,0.34719 -0.76765,0.6243 -1.24178,0.83131 -0.47414,0.20702 -0.97833,0.31052 -1.51257,0.31052 l -0.0196,0 c -0.57459,0 -1.10883,-0.12021 -1.60273,-0.36064 -0.4939,-0.24043 -0.92117,-0.56094 -1.28182,-0.96152 -0.30726,-0.34719 -0.54433,-0.73779 -0.7112,-1.17179 -0.16688,-0.43399 -0.26356,-0.89794 -0.29004,-1.39184 l 0,-5.0478 c 0,-0.53383 0.10014,-1.03445 0.30043,-1.50187 0.20029,-0.4674 0.47729,-0.87471 0.83101,-1.22192 0.35372,-0.34718 0.76428,-0.62429 1.23169,-0.83131 0.46741,-0.207 0.97496,-0.31051 1.52266,-0.31052 l 0.0196,0 c 0.58762,10e-6 1.12512,0.11686 1.61251,0.35056 0.48737,0.23371 0.91138,0.55086 1.27203,0.95143 0.30726,0.3472 0.54769,0.7378 0.72129,1.17178 0.17359,0.43401 0.26691,0.89796 0.27996,1.39185 z m -3.88579,-1.80261 c -0.25348,1e-5 -0.4937,0.0468 -0.72068,0.14028 -0.22698,0.0935 -0.42401,0.22373 -0.59109,0.3906 -0.16708,0.16688 -0.29728,0.36055 -0.3906,0.581 -0.0933,0.22047 -0.13998,0.45072 -0.13998,0.69073 l 0,5.0478 c 0,0.50735 0.17686,0.93798 0.53058,1.2919 0.35371,0.35393 0.78445,0.53089 1.29221,0.53088 0.25346,10e-6 0.49369,-0.0468 0.72068,-0.14028 0.22697,-0.0935 0.4239,-0.22372 0.59078,-0.3906 0.16687,-0.16687 0.29707,-0.36044 0.3906,-0.5807 0.0935,-0.22025 0.14028,-0.45732 0.14028,-0.7112 l 0,-5.0478 c 0,-0.49389 -0.17696,-0.9178 -0.53088,-1.27173 -0.35392,-0.35391 -0.78456,-0.53087 -1.2919,-0.53088 z" style="marker:none" id="path5023"/> <path d="m 460.63479,265.43082 c 0.29381,0.32031 0.52079,0.69746 0.68095,1.13145 0.16014,0.434 0.24022,0.8847 0.24023,1.35211 -10e-6,0.5208 -0.10016,1.0149 -0.30044,1.48231 -0.2003,0.46741 -0.47404,0.87472 -0.82123,1.22191 -0.3472,0.3472 -0.75777,0.63093 -1.23169,0.85118 -0.47394,0.22026 -0.98475,0.33712 -1.53244,0.35056 l -2.70422,0 c -0.28037,0 -0.52069,-0.1035 -0.72098,-0.31052 -0.20029,-0.20701 -0.30044,-0.44398 -0.30044,-0.7109 0,-0.28036 0.0969,-0.52069 0.29066,-0.72098 0.19377,-0.20029 0.43735,-0.30716 0.73076,-0.32061 l 2.86437,0 c 0.46741,10e-6 0.86137,-0.16025 1.18188,-0.48075 0.3205,-0.32051 0.48075,-0.71446 0.48076,-1.18188 -10e-6,-0.45396 -0.16026,-0.83447 -0.48076,-1.14153 -0.32051,-0.30705 -0.71447,-0.47403 -1.18188,-0.50093 l -2.2635,0 c -0.26692,10e-6 -0.50388,-0.0968 -0.7109,-0.29035 -0.20701,-0.19356 -0.31052,-0.43725 -0.31052,-0.73107 0,-0.26691 0.0969,-0.50724 0.29066,-0.72098 0.19377,-0.21373 0.43735,-0.32733 0.73076,-0.34078 l 2.2635,0 c 0.21394,1e-5 0.42106,-0.04 0.62135,-0.12011 0.20029,-0.0801 0.37714,-0.19356 0.53058,-0.34048 0.15342,-0.1469 0.27689,-0.31713 0.37042,-0.51071 0.0935,-0.19355 0.14028,-0.41055 0.14029,-0.65099 -10e-6,-0.4674 -0.16026,-0.86136 -0.48076,-1.18188 -0.32051,-0.32049 -0.71447,-0.48074 -1.18188,-0.48075 l -2.86437,0 c -0.26692,1e-5 -0.50388,-0.10014 -0.7109,-0.30044 -0.20701,-0.20028 -0.31052,-0.44061 -0.31052,-0.72098 0,-0.28036 0.10015,-0.52405 0.30044,-0.73107 0.20029,-0.207 0.44061,-0.31051 0.72098,-0.31052 l 2.70422,0 c 0.52079,0.0135 1.0149,0.12033 1.48231,0.3206 0.46741,0.20031 0.87807,0.47405 1.232,0.82123 0.35392,0.34721 0.63764,0.75788 0.85118,1.232 0.21353,0.47415 0.3203,0.97813 0.32031,1.51196 -10e-6,0.53425 -0.0935,1.02163 -0.28057,1.46214 -0.0799,0.18705 -0.16994,0.37074 -0.27018,0.55105 -0.10026,0.18033 -0.22373,0.35057 -0.37043,0.51071 z" style="marker:none" id="path5025"/> <path d="m 464.18317,270.77875 c 0,0.28037 -0.10351,0.52406 -0.31052,0.73107 -0.20702,0.20702 -0.45743,0.31052 -0.75124,0.31052 -0.28037,0 -0.5207,-0.1035 -0.72099,-0.31052 -0.20029,-0.20701 -0.30043,-0.4507 -0.30043,-0.73107 0,-0.29381 0.10014,-0.54422 0.30043,-0.75124 0.20029,-0.20701 0.44062,-0.31052 0.72099,-0.31052 0.29381,0 0.54422,0.10351 0.75124,0.31052 0.20701,0.20702 0.31052,0.45743 0.31052,0.75124 z" style="marker:none" id="path5027"/> <path d="m 466.80426,270.77875 c 0,0.28037 -0.10351,0.52406 -0.31052,0.73107 -0.20702,0.20702 -0.45743,0.31052 -0.75124,0.31052 -0.28037,0 -0.5207,-0.1035 -0.72099,-0.31052 -0.20029,-0.20701 -0.30043,-0.4507 -0.30043,-0.73107 0,-0.29381 0.10014,-0.54422 0.30043,-0.75124 0.20029,-0.20701 0.44062,-0.31052 0.72099,-0.31052 0.29381,0 0.54422,0.10351 0.75124,0.31052 0.20701,0.20702 0.31052,0.45743 0.31052,0.75124 z" style="marker:none" id="path5029"/> <path d="m 469.42535,270.77875 c 0,0.28037 -0.1035,0.52406 -0.31052,0.73107 -0.20701,0.20702 -0.45743,0.31052 -0.75124,0.31052 -0.28036,0 -0.52069,-0.1035 -0.72098,-0.31052 -0.20029,-0.20701 -0.30044,-0.4507 -0.30044,-0.73107 0,-0.29381 0.10015,-0.54422 0.30044,-0.75124 0.20029,-0.20701 0.44062,-0.31052 0.72098,-0.31052 0.29381,0 0.54423,0.10351 0.75124,0.31052 0.20702,0.20702 0.31052,0.45743 0.31052,0.75124 z" style="marker:none" id="path5031"/> </g> <g id="g4704" transform="matrix(0.01562397,0,0,-0.01620429,255.94463,370.88035)" style="fill:#dd2f2f;fill-opacity:1"> <path id="path4706" d="m 7809.5088,5992.5 c 8.6665,-102.67 72.666,-154 192,-154 v -37 h -576 v 37 c 119.33,0 183.33,51.334 192,154 -176,0 -316.67,47.334 -422,142 -105.33,94.666 -158.33,209.67 -159,345 0,144.67 53.666,260 161,346 107.334,86 247.33,133 420,141 -8,102.67 -72,154 -192,154 v 37 h 576 v -37 c -119.33,0 -183.33,-51.333 -192,-154 190.67,-6 335,-56 433,-150 98,-94 147.33,-206.33 148,-337 0,-135.33 -52.667,-250.33 -158,-345 -105.333,-94.67 -246.33,-142 -423,-142 z m -192,919 c -114,-6.667 -203.33,-42 -268,-106 -64.67,-64 -97,-178.33 -97,-343 0,-262.67 121.67,-401 365,-415 v 864 z m 192,0 v -864 c 110,4.6665 198.33,38.666 265,102 66.67,63.334 100.33,178.67 101,346 0,263.33 -122,402 -366,416 z" style="fill:#dd2f2f;fill-opacity:1"/> </g> <g style="font-size:20.02983475px;font-style:normal;font-variant:normal;font-weight:300;font-stretch:normal;text-indent:0;text-align:start;text-decoration:none;line-height:125%;letter-spacing:0px;word-spacing:0px;text-transform:none;direction:ltr;block-progression:tb;writing-mode:lr-tb;text-anchor:start;baseline-shift:baseline;color:#000000;fill:#dd2f2f;fill-opacity:1;fill-rule:nonzero;stroke:none;marker:none;visibility:visible;display:inline;overflow:visible;enable-background:accumulate;font-family:'[z] Arista Light';-inkscape-font-specification:'[z] Arista Light, Light'" id="text4716"> <path d="m 400.49949,264.33481 c 0,0.28038 -0.0969,0.52397 -0.29065,0.73077 -0.19378,0.20682 -0.43737,0.31022 -0.73077,0.31021 l -5.32837,0 c -0.29381,1e-5 -0.5375,-0.10339 -0.73107,-0.31021 -0.19356,-0.2068 -0.29035,-0.45039 -0.29035,-0.73077 0,-0.30725 0.0968,-0.56102 0.29035,-0.76132 0.19357,-0.20028 0.43726,-0.30043 0.73107,-0.30044 l 5.32837,0 c 0.2934,10e-6 0.53699,0.10016 0.73077,0.30044 0.19376,0.2003 0.29065,0.45407 0.29065,0.76132 z m 0,3.70547 c 0,0.28038 -0.0969,0.52407 -0.29065,0.73107 -0.19378,0.20702 -0.43737,0.31053 -0.73077,0.31053 l -5.32837,0 c -0.29381,0 -0.5375,-0.10351 -0.73107,-0.31053 -0.19356,-0.207 -0.29035,-0.45069 -0.29035,-0.73107 0,-0.30725 0.0968,-0.56103 0.29035,-0.76132 0.19357,-0.20029 0.43726,-0.30043 0.73107,-0.30044 l 5.32837,0 c 0.2934,10e-6 0.53699,0.10015 0.73077,0.30044 0.19376,0.20029 0.29065,0.45407 0.29065,0.76132 z" style="marker:none" id="path5034"/> </g> <g id="g4870" transform="translate(-32.81069,88.249443)"> <g style="font-size:20.02983475px;font-style:normal;font-variant:normal;font-weight:300;font-stretch:normal;text-indent:0;text-align:start;text-decoration:none;line-height:125%;letter-spacing:0px;word-spacing:0px;text-transform:none;direction:ltr;block-progression:tb;writing-mode:lr-tb;text-anchor:start;baseline-shift:baseline;color:#000000;fill:#dd2f2f;fill-opacity:1;fill-rule:nonzero;stroke:none;marker:none;visibility:visible;display:inline;overflow:visible;enable-background:accumulate;font-family:'[z] Arista Light';-inkscape-font-specification:'[z] Arista Light, Light'" id="text4507-7-0"> <path d="m 289.15957,164.49305 c 0.60106,0.0668 1.16536,0.24044 1.69289,0.5208 0.52751,0.28037 0.98147,0.63755 1.36189,1.07154 0.3804,0.434 0.68083,0.92811 0.9013,1.48231 0.22046,0.55422 0.33069,1.13838 0.3307,1.75249 l 0,3.86562 c -10e-6,0.26732 -0.10016,0.49777 -0.30044,0.69134 -0.2003,0.19356 -0.42738,0.29035 -0.68125,0.29035 -0.0933,0 -0.19673,-0.007 -0.31022,-0.0202 -0.1135,-0.0134 -0.22373,-0.0501 -0.33069,-0.11002 -0.10698,-0.0599 -0.20386,-0.14334 -0.29065,-0.25031 -0.0868,-0.10698 -0.13673,-0.25378 -0.14976,-0.44042 -0.0668,0.0265 -0.18706,0.0865 -0.36065,0.18002 -0.1736,0.0935 -0.30054,0.16025 -0.38081,0.20019 -0.14671,0.0668 -0.30024,0.12693 -0.46059,0.18032 -0.16036,0.0534 -0.32734,0.10677 -0.50093,0.16015 -0.33375,0.0668 -0.69419,0.10025 -1.08132,0.10025 -1.00166,0 -1.89634,-0.27039 -2.68405,-0.81115 -0.78772,-0.54076 -1.37534,-1.23841 -1.76288,-2.09296 -0.13326,-0.29381 -0.23666,-0.60433 -0.31022,-0.93156 -0.0735,-0.32723 -0.11033,-0.66444 -0.11033,-1.01164 0,-0.34719 0.0368,-0.68104 0.11033,-1.00156 0.0736,-0.32049 0.17696,-0.63417 0.31022,-0.94103 0.38754,-0.86799 0.97516,-1.5691 1.76288,-2.10336 0.78771,-0.53423 1.68239,-0.80135 2.68405,-0.80136 0.10676,1e-5 0.20018,1e-5 0.28026,0 0.0801,1e-5 0.17349,0.007 0.28027,0.0202 z m -0.5807,7.71168 c 0.38712,10e-6 0.75765,-0.0735 1.11158,-0.22036 0.35391,-0.1469 0.66107,-0.35055 0.92147,-0.61095 0.26039,-0.2604 0.46741,-0.56419 0.62105,-0.91139 0.15362,-0.3472 0.23043,-0.72781 0.23044,-1.14184 -1e-5,-0.37368 -0.0768,-0.73748 -0.23044,-1.09141 -0.15364,-0.35392 -0.36402,-0.66107 -0.63113,-0.92148 -0.26713,-0.26039 -0.57429,-0.47066 -0.92148,-0.63082 -0.3472,-0.16014 -0.71437,-0.24022 -1.10149,-0.24023 -0.38714,1e-5 -0.75094,0.0767 -1.09141,0.23014 -0.34048,0.15344 -0.64427,0.36371 -0.91139,0.63083 -0.26713,0.26712 -0.4775,0.57428 -0.63113,0.92147 -0.15363,0.34721 -0.23045,0.71437 -0.23045,1.1015 0,0.40058 0.0802,0.77447 0.24053,1.12166 0.16036,0.3472 0.37735,0.651 0.651,0.9114 0.27364,0.2604 0.58069,0.46741 0.92117,0.62104 0.34047,0.15363 0.69103,0.23045 1.05168,0.23044 z" style="marker:none" id="path5037"/> <path d="m 304.88978,167.13676 c 0.29381,1e-5 0.54422,0.0969 0.75125,0.29065 0.207,0.19378 0.31051,0.44409 0.31052,0.75094 -10e-6,0.28037 -0.10352,0.52406 -0.31052,0.73107 -0.20703,0.20702 -0.45744,0.31053 -0.75125,0.31052 l -1.70236,0 0,1.70298 c -10e-6,0.30685 -0.10351,0.56379 -0.31052,0.7708 -0.20702,0.20701 -0.45071,0.31052 -0.73107,0.31052 -0.30727,0 -0.56104,-0.10351 -0.76133,-0.31052 -0.20029,-0.20701 -0.30044,-0.46395 -0.30043,-0.7708 l 0,-1.70298 -1.72254,0 c -0.29381,1e-5 -0.5375,-0.1035 -0.73107,-0.31052 -0.19357,-0.20701 -0.29035,-0.4507 -0.29035,-0.73107 0,-0.30685 0.0968,-0.55716 0.29035,-0.75094 0.19357,-0.19376 0.43726,-0.29064 0.73107,-0.29065 l 1.72254,0 0,-1.7421 c -10e-6,-0.2938 0.10014,-0.54085 0.30043,-0.74115 0.20029,-0.20028 0.45406,-0.30043 0.76133,-0.30044 0.28036,1e-5 0.52405,0.10016 0.73107,0.30044 0.20701,0.2003 0.31051,0.44735 0.31052,0.74115 l 0,1.7421 1.70236,0 z" style="marker:none" id="path5039"/> <path d="m 311.8655,161.38845 c 0.12022,-0.0134 0.24043,0.007 0.36065,0.0599 0.12021,0.0534 0.22372,0.13021 0.31052,0.23044 0.0868,0.10026 0.15689,0.21049 0.21027,0.33069 0.0534,0.12023 0.0801,0.24697 0.0801,0.38021 l 0,2.96462 c 0.50775,-0.34719 1.01866,-0.58089 1.53274,-0.70112 0.51407,-0.1202 0.95794,-0.18031 1.33163,-0.18032 0.62756,1e-5 1.23852,0.12022 1.83287,0.36064 0.59435,0.24044 1.13847,0.59436 1.63238,1.06177 l 0,-0.0202 c 0.4674,0.48087 0.81796,0.99504 1.05167,1.54252 0.2337,0.5475 0.35055,1.18168 0.35056,1.90256 -1e-5,0.66791 -0.13021,1.29557 -0.39059,1.88299 -0.26041,0.58743 -0.61097,1.1015 -1.05168,1.54221 -0.44073,0.44073 -0.9548,0.78792 -1.54221,1.0416 -0.58743,0.25367 -1.20837,0.38051 -1.86282,0.38051 -0.64102,0 -1.25197,-0.1302 -1.83287,-0.3906 -0.58091,-0.2604 -1.09834,-0.61096 -1.5523,-1.05168 -0.45397,-0.44072 -0.81451,-0.95479 -1.08163,-1.54221 -0.26712,-0.58742 -0.40068,-1.20836 -0.40068,-1.86282 l 0,-7.03013 c 0,-0.22697 0.10014,-0.43734 0.30043,-0.63113 0.20029,-0.19375 0.41393,-0.28391 0.64091,-0.27048 z m 0.96152,7.93174 c 0,0.40058 0.0768,0.77447 0.23045,1.12166 0.15362,0.3472 0.364,0.651 0.63112,0.9114 0.26712,0.2604 0.57428,0.46741 0.92148,0.62104 0.34719,0.15363 0.71436,0.23045 1.1015,0.23044 0.38712,10e-6 0.75765,-0.0768 1.11158,-0.23044 0.35391,-0.15363 0.66107,-0.36064 0.92147,-0.62104 0.26039,-0.2604 0.46741,-0.5642 0.62105,-0.9114 0.15362,-0.34719 0.23043,-0.72108 0.23044,-1.12166 -1e-5,-0.38713 -0.0768,-0.75766 -0.23044,-1.11158 -0.15364,-0.35392 -0.36066,-0.66108 -0.62105,-0.92148 -0.2604,-0.26039 -0.56756,-0.4673 -0.92147,-0.62074 -0.35393,-0.15342 -0.72446,-0.23013 -1.11158,-0.23014 -0.38714,1e-5 -0.75431,0.0801 -1.1015,0.24023 -0.3472,0.16016 -0.65436,0.37705 -0.92148,0.65069 -0.26712,0.27365 -0.4775,0.58406 -0.63112,0.93126 -0.15364,0.3472 -0.23045,0.70112 -0.23045,1.06176 z" style="marker:none" id="path5041"/> </g> <g transform="translate(16.971037,-37.812297)" id="text4716-4" style="font-size:20.02983475px;font-style:normal;font-variant:normal;font-weight:300;font-stretch:normal;text-indent:0;text-align:start;text-decoration:none;line-height:125%;letter-spacing:0px;word-spacing:0px;text-transform:none;direction:ltr;block-progression:tb;writing-mode:lr-tb;text-anchor:start;baseline-shift:baseline;color:#000000;fill:#dd2f2f;fill-opacity:1;fill-rule:nonzero;stroke:none;marker:none;visibility:visible;display:inline;overflow:visible;enable-background:accumulate;font-family:'[z] Arista Light';-inkscape-font-specification:'[z] Arista Light, Light'"> <path id="path4761" style="marker:none" d="m 310.02646,216.14514 c -10e-6,0.28038 -0.0969,0.52396 -0.29066,0.73077 -0.19378,0.20681 -0.43736,0.31022 -0.73076,0.31021 l -47.6617,0 c -0.29382,1e-5 -0.53751,-0.1034 -0.73107,-0.31021 -0.19357,-0.20681 -0.29035,-0.45039 -0.29035,-0.73077 0,-0.30725 0.0968,-0.56103 0.29035,-0.76133 0.19356,-0.20028 0.43725,-0.30042 0.73107,-0.30043 l 47.6617,0 c 0.2934,1e-5 0.53698,0.10015 0.73076,0.30043 0.19376,0.2003 0.29065,0.45408 0.29066,0.76133 z"/> </g> <g style="font-size:20.02983475px;font-style:normal;font-variant:normal;font-weight:300;font-stretch:normal;text-indent:0;text-align:start;text-decoration:none;line-height:125%;letter-spacing:0px;word-spacing:0px;text-transform:none;direction:ltr;block-progression:tb;writing-mode:lr-tb;text-anchor:start;baseline-shift:baseline;color:#000000;fill:#dd2f2f;fill-opacity:1;fill-rule:nonzero;stroke:none;marker:none;visibility:visible;display:inline;overflow:visible;enable-background:accumulate;font-family:'[z] Arista Light';-inkscape-font-specification:'[z] Arista Light, Light'" id="text4507-7-8"> <path d="m 302.71584,184.80212 c 0.60107,0.0668 1.16536,0.24044 1.69289,0.52079 0.52751,0.28038 0.98148,0.63756 1.36189,1.07155 0.3804,0.434 0.68084,0.9281 0.90131,1.48231 0.22045,0.55421 0.33068,1.13838 0.33069,1.75248 l 0,3.86563 c -10e-6,0.26732 -0.10015,0.49777 -0.30043,0.69133 -0.2003,0.19357 -0.42739,0.29035 -0.68126,0.29035 -0.0933,0 -0.19673,-0.007 -0.31021,-0.0202 -0.1135,-0.0135 -0.22373,-0.0501 -0.33069,-0.11003 -0.10698,-0.0599 -0.20387,-0.14334 -0.29066,-0.25031 -0.0868,-0.10697 -0.13673,-0.25377 -0.14976,-0.44041 -0.0668,0.0265 -0.18705,0.0865 -0.36064,0.18001 -0.17361,0.0935 -0.30055,0.16026 -0.38082,0.20019 -0.14671,0.0668 -0.30024,0.12694 -0.46059,0.18032 -0.16036,0.0534 -0.32733,0.10677 -0.50092,0.16016 -0.33376,0.0668 -0.6942,0.10024 -1.08133,0.10024 -1.00166,0 -1.89634,-0.27038 -2.68405,-0.81114 -0.78771,-0.54076 -1.37534,-1.23842 -1.76288,-2.09296 -0.13325,-0.29381 -0.23666,-0.60433 -0.31021,-0.93157 -0.0736,-0.32722 -0.11034,-0.66443 -0.11034,-1.01164 0,-0.34719 0.0368,-0.68104 0.11034,-1.00155 0.0736,-0.3205 0.17696,-0.63418 0.31021,-0.94104 0.38754,-0.86798 0.97517,-1.5691 1.76288,-2.10335 0.78771,-0.53423 1.68239,-0.80135 2.68405,-0.80136 0.10676,10e-6 0.20019,10e-6 0.28027,0 0.0801,10e-6 0.17349,0.007 0.28026,0.0202 z m -0.5807,7.71168 c 0.38713,0 0.75765,-0.0735 1.11158,-0.22036 0.35392,-0.1469 0.66107,-0.35056 0.92148,-0.61096 0.26039,-0.26039 0.4674,-0.56419 0.62104,-0.91139 0.15362,-0.34719 0.23044,-0.7278 0.23045,-1.14184 -1e-5,-0.37368 -0.0768,-0.73748 -0.23045,-1.0914 -0.15364,-0.35392 -0.36401,-0.66108 -0.63113,-0.92148 -0.26713,-0.26039 -0.57428,-0.47067 -0.92147,-0.63082 -0.34721,-0.16015 -0.71437,-0.24022 -1.1015,-0.24023 -0.38714,1e-5 -0.75094,0.0767 -1.09141,0.23014 -0.34047,0.15343 -0.64427,0.36371 -0.91139,0.63082 -0.26712,0.26713 -0.4775,0.57429 -0.63113,0.92148 -0.15363,0.3472 -0.23044,0.71437 -0.23044,1.10149 0,0.40059 0.0802,0.77448 0.24053,1.12167 0.16035,0.3472 0.37735,0.651 0.65099,0.91139 0.27364,0.2604 0.5807,0.46742 0.92118,0.62104 0.34046,0.15364 0.69102,0.23045 1.05167,0.23045 z" style="marker:none" id="path5044"/> </g> </g> <g id="g4863" transform="translate(-32.810689,88.249443)"> <g style="font-size:20.02983475px;font-style:normal;font-variant:normal;font-weight:300;font-stretch:normal;text-indent:0;text-align:start;text-decoration:none;line-height:125%;letter-spacing:0px;word-spacing:0px;text-transform:none;direction:ltr;block-progression:tb;writing-mode:lr-tb;text-anchor:start;baseline-shift:baseline;color:#000000;fill:#dd2f2f;fill-opacity:1;fill-rule:nonzero;stroke:none;marker:none;visibility:visible;display:inline;overflow:visible;enable-background:accumulate;font-family:'[z] Arista Light';-inkscape-font-specification:'[z] Arista Light, Light'" id="text4507-7"> <path d="m 367.78109,164.49305 c 0.60107,0.0668 1.16536,0.24044 1.69289,0.5208 0.52751,0.28037 0.98147,0.63755 1.36189,1.07154 0.3804,0.434 0.68083,0.92811 0.9013,1.48231 0.22046,0.55422 0.33069,1.13838 0.3307,1.75249 l 0,3.86562 c -1e-5,0.26732 -0.10016,0.49777 -0.30044,0.69134 -0.2003,0.19356 -0.42738,0.29035 -0.68125,0.29035 -0.0933,0 -0.19673,-0.007 -0.31021,-0.0202 -0.1135,-0.0134 -0.22373,-0.0501 -0.3307,-0.11002 -0.10698,-0.0599 -0.20386,-0.14334 -0.29065,-0.25031 -0.0868,-0.10698 -0.13673,-0.25378 -0.14976,-0.44042 -0.0668,0.0265 -0.18706,0.0865 -0.36065,0.18002 -0.1736,0.0935 -0.30054,0.16025 -0.38081,0.20019 -0.14671,0.0668 -0.30024,0.12693 -0.46059,0.18032 -0.16036,0.0534 -0.32734,0.10677 -0.50093,0.16015 -0.33375,0.0668 -0.69419,0.10025 -1.08132,0.10025 -1.00166,0 -1.89634,-0.27039 -2.68405,-0.81115 -0.78772,-0.54076 -1.37534,-1.23841 -1.76288,-2.09296 -0.13326,-0.29381 -0.23666,-0.60433 -0.31022,-0.93156 -0.0736,-0.32723 -0.11033,-0.66444 -0.11033,-1.01164 0,-0.34719 0.0368,-0.68104 0.11033,-1.00156 0.0736,-0.32049 0.17696,-0.63417 0.31022,-0.94103 0.38754,-0.86799 0.97516,-1.5691 1.76288,-2.10336 0.78771,-0.53423 1.68239,-0.80135 2.68405,-0.80136 0.10676,1e-5 0.20018,1e-5 0.28026,0 0.0801,1e-5 0.17349,0.007 0.28027,0.0202 z m -0.5807,7.71168 c 0.38713,10e-6 0.75765,-0.0735 1.11158,-0.22036 0.35391,-0.1469 0.66107,-0.35055 0.92148,-0.61095 0.26039,-0.2604 0.4674,-0.56419 0.62104,-0.91139 0.15362,-0.3472 0.23044,-0.72781 0.23044,-1.14184 0,-0.37368 -0.0768,-0.73748 -0.23044,-1.09141 -0.15364,-0.35392 -0.36402,-0.66107 -0.63113,-0.92148 -0.26713,-0.26039 -0.57429,-0.47066 -0.92148,-0.63082 -0.3472,-0.16014 -0.71436,-0.24022 -1.10149,-0.24023 -0.38714,1e-5 -0.75094,0.0767 -1.09141,0.23014 -0.34048,0.15344 -0.64427,0.36371 -0.91139,0.63083 -0.26713,0.26712 -0.4775,0.57428 -0.63113,0.92147 -0.15363,0.34721 -0.23045,0.71437 -0.23045,1.1015 0,0.40058 0.0802,0.77447 0.24054,1.12166 0.16035,0.3472 0.37735,0.651 0.65099,0.9114 0.27364,0.2604 0.5807,0.46741 0.92117,0.62104 0.34047,0.15363 0.69103,0.23045 1.05168,0.23044 z" style="marker:none" id="path5047"/> </g> <path id="path4761-1" style="font-size:20.02983475px;font-style:normal;font-variant:normal;font-weight:300;font-stretch:normal;text-indent:0;text-align:start;text-decoration:none;line-height:125%;letter-spacing:0px;word-spacing:0px;text-transform:none;direction:ltr;block-progression:tb;writing-mode:lr-tb;text-anchor:start;baseline-shift:baseline;color:#000000;fill:#dd2f2f;fill-opacity:1;fill-rule:nonzero;stroke:none;marker:none;visibility:visible;display:inline;overflow:visible;enable-background:accumulate;font-family:'[z] Arista Light';-inkscape-font-specification:'[z] Arista Light, Light'" d="m 378.83358,178.33284 c -10e-6,0.28038 -0.0969,0.52396 -0.29066,0.73077 -0.19378,0.20681 -0.43736,0.31022 -0.73076,0.31021 l -21.20337,0 c -0.29382,1e-5 -0.53751,-0.1034 -0.73107,-0.31021 -0.19357,-0.20681 -0.29035,-0.45039 -0.29035,-0.73077 0,-0.30725 0.0968,-0.56103 0.29035,-0.76133 0.19356,-0.20028 0.43725,-0.30042 0.73107,-0.30043 l 21.20337,0 c 0.2934,10e-6 0.53698,0.10015 0.73076,0.30043 0.19376,0.2003 0.29065,0.45408 0.29066,0.76133 z"/> <g style="font-size:20.02983475px;font-style:normal;font-variant:normal;font-weight:300;font-stretch:normal;text-indent:0;text-align:start;text-decoration:none;line-height:125%;letter-spacing:0px;word-spacing:0px;text-transform:none;direction:ltr;block-progression:tb;writing-mode:lr-tb;text-anchor:start;baseline-shift:baseline;color:#000000;fill:#dd2f2f;fill-opacity:1;fill-rule:nonzero;stroke:none;stroke-width:1;marker:none;visibility:visible;display:inline;overflow:visible;enable-background:accumulate;font-family:'[z] Arista Light';-inkscape-font-specification:'[z] Arista Light, Light'" id="text4507-7-1-4"> <path d="m 363.3745,181.69752 c 0.12021,-0.0134 0.24042,0.007 0.36064,0.0599 0.12021,0.0534 0.22372,0.13021 0.31052,0.23045 0.0868,0.10026 0.15689,0.21049 0.21028,0.33069 0.0534,0.12023 0.0801,0.24696 0.0801,0.38021 l 0,2.96462 c 0.50775,-0.34719 1.01867,-0.5809 1.53274,-0.70112 0.51407,-0.12021 0.95795,-0.18031 1.33164,-0.18032 0.62755,1e-5 1.23851,0.12022 1.83286,0.36064 0.59435,0.24044 1.13847,0.59436 1.63238,1.06176 l 0,-0.0202 c 0.4674,0.48087 0.81796,0.99504 1.05168,1.54252 0.23369,0.54749 0.35054,1.18168 0.35055,1.90255 -10e-6,0.66791 -0.1302,1.29558 -0.39059,1.883 -0.26041,0.58742 -0.61097,1.10149 -1.05168,1.54221 -0.44073,0.44072 -0.9548,0.78792 -1.54221,1.04159 -0.58743,0.25368 -1.20837,0.38051 -1.86282,0.38051 -0.64102,0 -1.25197,-0.1302 -1.83287,-0.39059 -0.58091,-0.2604 -1.09834,-0.61096 -1.5523,-1.05168 -0.45397,-0.44072 -0.81451,-0.95479 -1.08163,-1.54221 -0.26712,-0.58742 -0.40068,-1.20836 -0.40068,-1.86283 l 0,-7.03012 c 0,-0.22697 0.10014,-0.43735 0.30043,-0.63113 0.20029,-0.19376 0.41393,-0.28392 0.64091,-0.27048 z m 0.96151,7.93173 c 0,0.40059 0.0768,0.77448 0.23045,1.12167 0.15362,0.3472 0.364,0.651 0.63113,0.91139 0.26711,0.2604 0.57427,0.46742 0.92147,0.62104 0.3472,0.15364 0.71436,0.23045 1.1015,0.23045 0.38712,0 0.75765,-0.0768 1.11158,-0.23045 0.35391,-0.15362 0.66107,-0.36064 0.92147,-0.62104 0.26039,-0.26039 0.46741,-0.56419 0.62105,-0.91139 0.15362,-0.34719 0.23043,-0.72108 0.23044,-1.12167 -10e-6,-0.38712 -0.0768,-0.75765 -0.23044,-1.11158 -0.15364,-0.35391 -0.36066,-0.66107 -0.62105,-0.92147 -0.2604,-0.26039 -0.56756,-0.46731 -0.92147,-0.62074 -0.35393,-0.15342 -0.72446,-0.23013 -1.11158,-0.23014 -0.38714,1e-5 -0.7543,0.0801 -1.1015,0.24023 -0.3472,0.16015 -0.65436,0.37705 -0.92147,0.65068 -0.26713,0.27365 -0.47751,0.58407 -0.63113,0.93126 -0.15364,0.3472 -0.23045,0.70113 -0.23045,1.06176 z" style="marker:none" id="path5050"/> </g> </g> <g style="font-size:20.02983475px;font-style:normal;font-variant:normal;font-weight:300;font-stretch:normal;text-indent:0;text-align:start;text-decoration:none;line-height:125%;letter-spacing:0px;word-spacing:0px;text-transform:none;direction:ltr;block-progression:tb;writing-mode:lr-tb;text-anchor:start;baseline-shift:baseline;color:#000000;fill:#dd2f2f;fill-opacity:1;fill-rule:nonzero;stroke:none;marker:none;visibility:visible;display:inline;overflow:visible;enable-background:accumulate;font-family:'[z] Arista Light';-inkscape-font-specification:'[z] Arista Light, Light'" id="text4716-8"> <path d="m 312.16734,264.72925 c -1e-5,0.28038 -0.0969,0.52397 -0.29066,0.73077 -0.19377,0.20682 -0.43736,0.31022 -0.73076,0.31021 l -5.32837,0 c -0.29381,10e-6 -0.5375,-0.10339 -0.73107,-0.31021 -0.19357,-0.2068 -0.29035,-0.45039 -0.29035,-0.73077 0,-0.30725 0.0968,-0.56102 0.29035,-0.76132 0.19357,-0.20028 0.43726,-0.30043 0.73107,-0.30044 l 5.32837,0 c 0.2934,1e-5 0.53699,0.10016 0.73076,0.30044 0.19377,0.2003 0.29065,0.45407 0.29066,0.76132 z m 0,3.70547 c -1e-5,0.28038 -0.0969,0.52406 -0.29066,0.73107 -0.19377,0.20702 -0.43736,0.31053 -0.73076,0.31053 l -5.32837,0 c -0.29381,0 -0.5375,-0.10351 -0.73107,-0.31053 -0.19357,-0.20701 -0.29035,-0.45069 -0.29035,-0.73107 0,-0.30725 0.0968,-0.56103 0.29035,-0.76132 0.19357,-0.20029 0.43726,-0.30043 0.73107,-0.30044 l 5.32837,0 c 0.2934,1e-5 0.53699,0.10015 0.73076,0.30044 0.19377,0.20029 0.29065,0.45407 0.29066,0.76132 z" style="marker:none" id="path5053"/> </g> <g style="font-size:20.02983475px;font-style:normal;font-variant:normal;font-weight:300;font-stretch:normal;text-indent:0;text-align:start;text-decoration:none;line-height:125%;letter-spacing:0px;word-spacing:0px;text-transform:none;direction:ltr;block-progression:tb;writing-mode:lr-tb;text-anchor:start;baseline-shift:baseline;color:#000000;fill:#dd2f2f;fill-opacity:1;fill-rule:nonzero;stroke:none;marker:none;visibility:visible;display:inline;overflow:visible;enable-background:accumulate;font-family:'[z] Arista Light';-inkscape-font-specification:'[z] Arista Light, Light'" id="text4895"> <path d="m 359.79225,264.72925 c -1e-5,0.28038 -0.0969,0.52397 -0.29066,0.73077 -0.19377,0.20682 -0.43736,0.31022 -0.73076,0.31021 l -5.32837,0 c -0.29382,10e-6 -0.53751,-0.10339 -0.73107,-0.31021 -0.19357,-0.2068 -0.29035,-0.45039 -0.29035,-0.73077 0,-0.30725 0.0968,-0.56102 0.29035,-0.76132 0.19356,-0.20028 0.43725,-0.30043 0.73107,-0.30044 l 5.32837,0 c 0.2934,1e-5 0.53699,0.10016 0.73076,0.30044 0.19377,0.2003 0.29065,0.45407 0.29066,0.76132 z m 0,3.70547 c -1e-5,0.28038 -0.0969,0.52406 -0.29066,0.73107 -0.19377,0.20702 -0.43736,0.31053 -0.73076,0.31053 l -5.32837,0 c -0.29382,0 -0.53751,-0.10351 -0.73107,-0.31053 -0.19357,-0.20701 -0.29035,-0.45069 -0.29035,-0.73107 0,-0.30725 0.0968,-0.56103 0.29035,-0.76132 0.19356,-0.20029 0.43725,-0.30043 0.73107,-0.30044 l 5.32837,0 c 0.2934,1e-5 0.53699,0.10015 0.73076,0.30044 0.19377,0.20029 0.29065,0.45407 0.29066,0.76132 z" style="marker:none" id="path5056"/> </g> </g> <g style="font-size:20.02983475px;font-style:normal;font-variant:normal;font-weight:300;font-stretch:normal;text-indent:0;text-align:start;text-decoration:none;line-height:125%;letter-spacing:0px;word-spacing:0px;text-transform:none;direction:ltr;block-progression:tb;writing-mode:lr-tb;text-anchor:start;baseline-shift:baseline;color:#000000;fill:#dd2f2f;fill-opacity:1;fill-rule:nonzero;stroke:none;stroke-width:1;marker:none;visibility:visible;display:inline;overflow:visible;enable-background:accumulate;font-family:'[z] Arista Light';-inkscape-font-specification:'[z] Arista Light, Light'" id="text4591-4"> <path d="m 435.38324,130.33241 c 0.60107,0.0668 1.16537,0.24044 1.69289,0.52079 0.52752,0.28038 0.98148,0.63756 1.3619,1.07154 0.3804,0.43401 0.68083,0.92811 0.9013,1.48231 0.22045,0.55422 0.33069,1.13838 0.3307,1.75249 l 0,3.86562 c -10e-6,0.26733 -0.10016,0.49778 -0.30044,0.69134 -0.2003,0.19357 -0.42738,0.29035 -0.68125,0.29035 -0.0933,0 -0.19673,-0.007 -0.31022,-0.0202 -0.1135,-0.0135 -0.22373,-0.0501 -0.33069,-0.11003 -0.10698,-0.0599 -0.20386,-0.14334 -0.29065,-0.25031 -0.0868,-0.10697 -0.13673,-0.25377 -0.14976,-0.44041 -0.0668,0.0265 -0.18706,0.0865 -0.36065,0.18001 -0.1736,0.0935 -0.30054,0.16026 -0.38081,0.20019 -0.14671,0.0668 -0.30024,0.12694 -0.46059,0.18032 -0.16036,0.0534 -0.32734,0.10677 -0.50093,0.16015 -0.33375,0.0668 -0.6942,0.10025 -1.08132,0.10025 -1.00166,0 -1.89634,-0.27038 -2.68405,-0.81114 -0.78772,-0.54077 -1.37534,-1.23842 -1.76288,-2.09296 -0.13326,-0.29381 -0.23666,-0.60434 -0.31022,-0.93157 -0.0736,-0.32722 -0.11033,-0.66444 -0.11033,-1.01164 0,-0.34719 0.0368,-0.68104 0.11033,-1.00155 0.0736,-0.3205 0.17696,-0.63418 0.31022,-0.94104 0.38754,-0.86798 0.97516,-1.5691 1.76288,-2.10335 0.78771,-0.53423 1.68239,-0.80136 2.68405,-0.80136 0.10676,0 0.20018,0 0.28026,0 0.0801,0 0.17349,0.007 0.28026,0.0202 z m -0.58069,7.71168 c 0.38712,0 0.75765,-0.0735 1.11158,-0.22036 0.35391,-0.14691 0.66107,-0.35056 0.92147,-0.61096 0.26039,-0.26039 0.46741,-0.56419 0.62105,-0.91139 0.15362,-0.34719 0.23043,-0.7278 0.23044,-1.14184 -1e-5,-0.37368 -0.0768,-0.73748 -0.23044,-1.09141 -0.15364,-0.35391 -0.36402,-0.66107 -0.63113,-0.92147 -0.26713,-0.26039 -0.57429,-0.47067 -0.92148,-0.63083 -0.3472,-0.16014 -0.71437,-0.24021 -1.10149,-0.24022 -0.38714,1e-5 -0.75094,0.0767 -1.09141,0.23014 -0.34048,0.15343 -0.64428,0.36371 -0.91139,0.63082 -0.26713,0.26713 -0.4775,0.57429 -0.63113,0.92148 -0.15364,0.3472 -0.23045,0.71437 -0.23045,1.10149 0,0.40059 0.0802,0.77448 0.24053,1.12167 0.16036,0.3472 0.37735,0.651 0.651,0.91139 0.27364,0.2604 0.58069,0.46741 0.92117,0.62104 0.34047,0.15364 0.69103,0.23045 1.05168,0.23045 z" style="marker:none" id="path5059"/> </g> </g> </g> </svg>